<svg width="20" height="20" viewBox="0 0 20 20" fill="none" xmlns="http://www.w3.org/2000/svg">
<g id="SVG">
<g id="Group">
<g id="Group_2">
<g id="Group_3">
<path id="Vector" d="M10.9891 12.2878V12.9871C10.9891 12.9871 9.19091 12.9871 8.99111 12.9871V12.3877C8.99111 11.7883 9.09101 10.9891 9.79031 10.2898C10.4896 9.59052 11.3887 9.09102 11.3887 8.19192C11.3887 7.29282 10.6894 6.79332 9.99011 6.79332C8.69141 6.79332 8.59151 8.19192 8.49161 8.49162H6.59351C6.59351 7.09302 7.19291 4.99512 9.99011 4.99512C12.3877 4.99512 13.3867 6.59352 13.3867 7.99212C13.3867 10.3897 10.9891 10.7893 10.9891 12.2878Z" fill="white"/>
<path id="Vector_2" d="M9.99043 15.9848C10.5423 15.9848 10.9897 15.5374 10.9897 14.9855C10.9897 14.4337 10.5423 13.9863 9.99043 13.9863C9.43858 13.9863 8.99121 14.4337 8.99121 14.9855C8.99121 15.5374 9.43858 15.9848 9.99043 15.9848Z" fill="white"/>
</g>
<path id="Vector_3" d="M9.99 1.998C14.3856 1.998 17.982 5.5944 17.982 9.99C17.982 14.3856 14.3856 17.982 9.99 17.982C5.5944 17.982 1.998 14.3856 1.998 9.99C1.998 5.5944 5.5944 1.998 9.99 1.998ZM9.99 0C4.4955 0 0 4.4955 0 9.99C0 15.4845 4.4955 19.98 9.99 19.98C15.4845 19.98 19.98 15.4845 19.98 9.99C19.98 4.4955 15.4845 0 9.99 0Z" fill="white"/>
</g>
</g>
</g>
</svg>
