<svg  viewBox="0 0 178 62" fill="none" xmlns="http://www.w3.org/2000/svg">
<rect x="0.490723" y="0.5" width="177" height="61" rx="15.5" fill="white"/>
<rect x="0.490723" y="0.5" width="177" height="61" rx="15.5" stroke="#B4C1CB"/>
<path fill-rule="evenodd" clip-rule="evenodd" d="M18.1076 19.8376C17.8497 20.1167 17.7007 20.5431 17.7007 21.1013V40.8982C17.7007 41.4563 17.8497 41.8828 18.1165 42.1507L18.1854 42.211L29.2317 31.1192V30.8714L18.1765 19.7773L18.1076 19.8376Z" fill="url(#paint0_linear_731_415)"/>
<path fill-rule="evenodd" clip-rule="evenodd" d="M32.9071 34.8259L29.2227 31.1264V30.8675L32.9071 27.168L32.9871 27.2171L37.3451 29.7043C38.5925 30.4098 38.5925 31.5752 37.3451 32.2897L32.9871 34.7768L32.9071 34.8259Z" fill="url(#paint1_linear_731_415)"/>
<path fill-rule="evenodd" clip-rule="evenodd" d="M32.987 34.7799L29.2226 31L18.1074 42.161C18.5143 42.5986 19.1969 42.6477 19.9596 42.2213L32.987 34.7799Z" fill="url(#paint2_linear_731_415)"/>
<path fill-rule="evenodd" clip-rule="evenodd" d="M32.987 27.2181L19.9596 19.7879C19.1969 19.3503 18.5121 19.4106 18.1074 19.8482L29.2226 30.998L32.987 27.2181Z" fill="url(#paint3_linear_731_415)"/>
<path opacity="0.2" fill-rule="evenodd" clip-rule="evenodd" d="M32.9068 34.6992L19.9684 42.0804C19.2457 42.4979 18.6009 42.4689 18.1851 42.0893L18.1162 42.1585L18.1851 42.2188C18.6009 42.5961 19.2457 42.6274 19.9684 42.2099L32.9958 34.7796L32.9068 34.6992Z" fill="black"/>
<path opacity="0.12" fill-rule="evenodd" clip-rule="evenodd" d="M37.3452 32.1632L32.896 34.6995L32.976 34.7799L37.334 32.2927C37.9588 31.9355 38.2657 31.4666 38.2657 31C38.2279 31.4287 37.9099 31.835 37.3452 32.1632Z" fill="black"/>
<path opacity="0.25" fill-rule="evenodd" clip-rule="evenodd" d="M19.9597 19.9174L37.3452 29.8348C37.9099 30.1541 38.2279 30.5716 38.2768 30.998C38.2768 30.5314 37.97 30.0625 37.3452 29.7053L19.9597 19.7879C18.7124 19.0712 17.7007 19.6696 17.7007 21.1007V21.2302C17.7007 19.7968 18.7124 19.2096 19.9597 19.9174Z" fill="white"/>
<path d="M55.6255 14.1699C56.4341 14.1699 57.1333 14.3262 57.7231 14.6387C58.5786 15.0879 59.1021 15.875 59.2935 17H58.1392C57.9985 16.3711 57.7075 15.9141 57.2661 15.6289C56.8247 15.3398 56.2681 15.1953 55.5962 15.1953C54.7993 15.1953 54.1274 15.4941 53.5806 16.0918C53.0376 16.6895 52.7661 17.5801 52.7661 18.7637C52.7661 19.7871 52.9907 20.6211 53.4399 21.2656C53.8892 21.9062 54.6216 22.2266 55.6372 22.2266C56.4146 22.2266 57.0571 22.002 57.5649 21.5527C58.0767 21.0996 58.3384 20.3691 58.3501 19.3613H55.6548V18.3945H59.4341V23H58.6841L58.4028 21.8926C58.0083 22.3262 57.6587 22.627 57.354 22.7949C56.8423 23.084 56.1919 23.2285 55.4028 23.2285C54.3833 23.2285 53.5063 22.8984 52.772 22.2383C51.9712 21.4102 51.5708 20.2734 51.5708 18.8281C51.5708 17.3867 51.9614 16.2402 52.7427 15.3887C53.4849 14.5762 54.4458 14.1699 55.6255 14.1699ZM63.7173 16.584C64.1626 16.584 64.5942 16.6895 65.0122 16.9004C65.4302 17.1074 65.7485 17.377 65.9673 17.709C66.1782 18.0254 66.3188 18.3945 66.3892 18.8164C66.4517 19.1055 66.4829 19.5664 66.4829 20.1992H61.8833C61.9028 20.8359 62.0532 21.3477 62.3345 21.7344C62.6157 22.1172 63.0513 22.3086 63.6411 22.3086C64.1919 22.3086 64.6313 22.127 64.9595 21.7637C65.147 21.5527 65.2798 21.3086 65.3579 21.0312H66.395C66.3677 21.2617 66.2759 21.5195 66.1196 21.8047C65.9673 22.0859 65.7954 22.3164 65.604 22.4961C65.2837 22.8086 64.8872 23.0195 64.4146 23.1289C64.1606 23.1914 63.8735 23.2227 63.5532 23.2227C62.772 23.2227 62.1099 22.9395 61.5669 22.373C61.0239 21.8027 60.7524 21.0059 60.7524 19.9824C60.7524 18.9746 61.0259 18.1562 61.5728 17.5273C62.1196 16.8984 62.8345 16.584 63.7173 16.584ZM65.3989 19.3613C65.356 18.9043 65.2563 18.5391 65.1001 18.2656C64.811 17.7578 64.3286 17.5039 63.6528 17.5039C63.1685 17.5039 62.7622 17.6797 62.4341 18.0312C62.106 18.3789 61.9321 18.8223 61.9126 19.3613H65.3989ZM67.9946 14.9727H69.061V16.7246H70.063V17.5859H69.061V21.6816C69.061 21.9004 69.1353 22.0469 69.2837 22.1211C69.3657 22.1641 69.5024 22.1855 69.6938 22.1855C69.7446 22.1855 69.7993 22.1855 69.8579 22.1855C69.9165 22.1816 69.9849 22.1758 70.063 22.168V23C69.9419 23.0352 69.8149 23.0605 69.6821 23.0762C69.5532 23.0918 69.4126 23.0996 69.2603 23.0996C68.7681 23.0996 68.4341 22.9746 68.2583 22.7246C68.0825 22.4707 67.9946 22.1426 67.9946 21.7402V17.5859H67.145V16.7246H67.9946V14.9727ZM74.4634 16.7539H75.5356V23H74.4634V16.7539ZM74.4634 14.3926H75.5356V15.5879H74.4634V14.3926ZM77.3462 14.9727H78.4126V16.7246H79.4146V17.5859H78.4126V21.6816C78.4126 21.9004 78.4868 22.0469 78.6353 22.1211C78.7173 22.1641 78.854 22.1855 79.0454 22.1855C79.0962 22.1855 79.1509 22.1855 79.2095 22.1855C79.2681 22.1816 79.3364 22.1758 79.4146 22.168V23C79.2935 23.0352 79.1665 23.0605 79.0337 23.0762C78.9048 23.0918 78.7642 23.0996 78.6118 23.0996C78.1196 23.0996 77.7856 22.9746 77.6099 22.7246C77.4341 22.4707 77.3462 22.1426 77.3462 21.7402V17.5859H76.4966V16.7246H77.3462V14.9727ZM86.3052 22.3203C87.0044 22.3203 87.4829 22.0566 87.7407 21.5293C88.0024 20.998 88.1333 20.4082 88.1333 19.7598C88.1333 19.1738 88.0396 18.6973 87.8521 18.3301C87.5552 17.752 87.0435 17.4629 86.3169 17.4629C85.6724 17.4629 85.2036 17.709 84.9106 18.2012C84.6177 18.6934 84.4712 19.2871 84.4712 19.9824C84.4712 20.6504 84.6177 21.207 84.9106 21.6523C85.2036 22.0977 85.6685 22.3203 86.3052 22.3203ZM86.3462 16.543C87.1548 16.543 87.8384 16.8125 88.397 17.3516C88.9556 17.8906 89.2349 18.6836 89.2349 19.7305C89.2349 20.7422 88.9888 21.5781 88.4966 22.2383C88.0044 22.8984 87.2407 23.2285 86.2056 23.2285C85.3423 23.2285 84.6567 22.9375 84.1489 22.3555C83.6411 21.7695 83.3872 20.9844 83.3872 20C83.3872 18.9453 83.6548 18.1055 84.1899 17.4805C84.7251 16.8555 85.4438 16.543 86.3462 16.543ZM90.4946 16.7246H91.4966V17.6152C91.7935 17.248 92.1079 16.9844 92.4399 16.8242C92.772 16.6641 93.1411 16.584 93.5474 16.584C94.438 16.584 95.0396 16.8945 95.3521 17.5156C95.5239 17.8555 95.6099 18.3418 95.6099 18.9746V23H94.5376V19.0449C94.5376 18.6621 94.481 18.3535 94.3677 18.1191C94.1802 17.7285 93.8403 17.5332 93.3481 17.5332C93.0981 17.5332 92.8931 17.5586 92.7329 17.6094C92.4438 17.6953 92.1899 17.8672 91.9712 18.125C91.7954 18.332 91.6802 18.5469 91.6255 18.7695C91.5747 18.9883 91.5493 19.3027 91.5493 19.7129V23H90.4946V16.7246Z" fill="black"/>
<path d="M58.7153 31.2832C60.063 31.2832 61.2284 31.5436 62.2114 32.0645C63.6372 32.8132 64.5096 34.125 64.8286 36H62.9048C62.6704 34.9518 62.1854 34.1901 61.4497 33.7148C60.714 33.2331 59.7863 32.9922 58.6665 32.9922C57.3384 32.9922 56.2186 33.4902 55.3071 34.4863C54.4022 35.4824 53.9497 36.9668 53.9497 38.9395C53.9497 40.6452 54.3241 42.0352 55.0728 43.1094C55.8215 44.1771 57.0422 44.7109 58.7349 44.7109C60.0304 44.7109 61.1014 44.3366 61.9478 43.5879C62.8006 42.8327 63.2368 41.6152 63.2563 39.9355H58.7642V38.3242H65.063V46H63.813L63.3442 44.1543C62.6867 44.877 62.104 45.3783 61.5962 45.6582C60.7433 46.14 59.6593 46.3809 58.3442 46.3809C56.645 46.3809 55.1834 45.8307 53.9595 44.7305C52.6248 43.3503 51.9575 41.4557 51.9575 39.0469C51.9575 36.6445 52.6086 34.7337 53.9106 33.3145C55.1476 31.9603 56.7492 31.2832 58.7153 31.2832ZM71.9966 44.8672C73.1619 44.8672 73.9595 44.4277 74.3892 43.5488C74.8254 42.6634 75.0435 41.6803 75.0435 40.5996C75.0435 39.623 74.8872 38.8288 74.5747 38.2168C74.0799 37.2533 73.2271 36.7715 72.0161 36.7715C70.9419 36.7715 70.1606 37.1816 69.6724 38.002C69.1841 38.8223 68.9399 39.8118 68.9399 40.9707C68.9399 42.084 69.1841 43.0117 69.6724 43.7539C70.1606 44.4961 70.9354 44.8672 71.9966 44.8672ZM72.0649 35.2383C73.4126 35.2383 74.5519 35.6875 75.4829 36.5859C76.4139 37.4844 76.8794 38.806 76.8794 40.5508C76.8794 42.237 76.4692 43.6302 75.6489 44.7305C74.8286 45.8307 73.5558 46.3809 71.8306 46.3809C70.3918 46.3809 69.2492 45.8958 68.4028 44.9258C67.5565 43.9492 67.1333 42.6406 67.1333 41C67.1333 39.2422 67.5793 37.8424 68.4712 36.8008C69.3631 35.7591 70.561 35.2383 72.0649 35.2383ZM83.1294 44.8672C84.2948 44.8672 85.0923 44.4277 85.522 43.5488C85.9582 42.6634 86.1763 41.6803 86.1763 40.5996C86.1763 39.623 86.02 38.8288 85.7075 38.2168C85.2127 37.2533 84.3599 36.7715 83.1489 36.7715C82.0747 36.7715 81.2935 37.1816 80.8052 38.002C80.3169 38.8223 80.0728 39.8118 80.0728 40.9707C80.0728 42.084 80.3169 43.0117 80.8052 43.7539C81.2935 44.4961 82.0682 44.8672 83.1294 44.8672ZM83.1978 35.2383C84.5454 35.2383 85.6847 35.6875 86.6157 36.5859C87.5467 37.4844 88.0122 38.806 88.0122 40.5508C88.0122 42.237 87.6021 43.6302 86.7817 44.7305C85.9614 45.8307 84.6886 46.3809 82.9634 46.3809C81.5246 46.3809 80.382 45.8958 79.5356 44.9258C78.6893 43.9492 78.2661 42.6406 78.2661 41C78.2661 39.2422 78.7121 37.8424 79.604 36.8008C80.4959 35.7591 81.6938 35.2383 83.1978 35.2383ZM93.8032 35.3555C94.6235 35.3555 95.3397 35.5573 95.9517 35.9609C96.2837 36.1888 96.6222 36.5208 96.9673 36.957V35.6387H98.5884V45.1504C98.5884 46.4785 98.3931 47.5267 98.0024 48.2949C97.2733 49.7142 95.8963 50.4238 93.8716 50.4238C92.7453 50.4238 91.798 50.1699 91.0298 49.6621C90.2616 49.1608 89.8319 48.373 89.7407 47.2988H91.5278C91.6125 47.7676 91.7817 48.1289 92.0356 48.3828C92.4328 48.7734 93.0578 48.9688 93.9106 48.9688C95.2583 48.9688 96.1405 48.4935 96.5571 47.543C96.8045 46.9831 96.9185 45.9837 96.8989 44.5449C96.5474 45.0788 96.1242 45.4759 95.6294 45.7363C95.1346 45.9967 94.4803 46.127 93.6665 46.127C92.5337 46.127 91.5409 45.7266 90.688 44.9258C89.8416 44.1185 89.4185 42.7871 89.4185 40.9316C89.4185 39.1803 89.8449 37.8132 90.6978 36.8301C91.5571 35.847 92.5923 35.3555 93.8032 35.3555ZM96.9673 40.7266C96.9673 39.431 96.7004 38.4707 96.1665 37.8457C95.6326 37.2207 94.9523 36.9082 94.1255 36.9082C92.8885 36.9082 92.0422 37.4876 91.5864 38.6465C91.3455 39.265 91.2251 40.0755 91.2251 41.0781C91.2251 42.2565 91.4627 43.1549 91.938 43.7734C92.4198 44.3854 93.0643 44.6914 93.8716 44.6914C95.1346 44.6914 96.0233 44.1217 96.5376 42.9824C96.8241 42.3379 96.9673 41.5859 96.9673 40.7266ZM101.293 31.6543H103.051V46H101.293V31.6543ZM110.053 35.3066C110.795 35.3066 111.515 35.4824 112.211 35.834C112.908 36.179 113.439 36.6283 113.803 37.1816C114.155 37.709 114.389 38.3242 114.506 39.0273C114.611 39.5091 114.663 40.2773 114.663 41.332H106.997C107.029 42.3932 107.28 43.2461 107.749 43.8906C108.217 44.5286 108.943 44.8477 109.926 44.8477C110.844 44.8477 111.577 44.5449 112.124 43.9395C112.436 43.5879 112.657 43.181 112.788 42.7188H114.516C114.471 43.1029 114.318 43.5326 114.057 44.0078C113.803 44.4766 113.517 44.8607 113.198 45.1602C112.664 45.681 112.003 46.0326 111.215 46.2148C110.792 46.319 110.314 46.3711 109.78 46.3711C108.478 46.3711 107.374 45.8991 106.469 44.9551C105.564 44.0046 105.112 42.6764 105.112 40.9707C105.112 39.291 105.568 37.9271 106.479 36.8789C107.39 35.8307 108.582 35.3066 110.053 35.3066ZM112.856 39.9355C112.784 39.1738 112.618 38.5651 112.358 38.1094C111.876 37.263 111.072 36.8398 109.946 36.8398C109.139 36.8398 108.461 37.1328 107.915 37.7188C107.368 38.2982 107.078 39.0371 107.045 39.9355H112.856ZM122.817 31.6543H129.272C130.548 31.6543 131.577 32.0156 132.358 32.7383C133.139 33.4544 133.53 34.4635 133.53 35.7656C133.53 36.8854 133.181 37.862 132.485 38.6953C131.788 39.5221 130.717 39.9355 129.272 39.9355H124.76V46H122.817V31.6543ZM131.567 35.7754C131.567 34.7207 131.176 34.0046 130.395 33.627C129.965 33.4251 129.376 33.3242 128.627 33.3242H124.76V38.2949H128.627C129.5 38.2949 130.206 38.1094 130.747 37.7383C131.293 37.3672 131.567 36.7129 131.567 35.7754ZM135.786 31.6543H137.543V46H135.786V31.6543ZM141.538 43.2168C141.538 43.7246 141.723 44.125 142.094 44.418C142.465 44.7109 142.905 44.8574 143.413 44.8574C144.031 44.8574 144.63 44.7142 145.209 44.4277C146.186 43.9525 146.674 43.1745 146.674 42.0938V40.6777C146.459 40.8145 146.183 40.9284 145.844 41.0195C145.506 41.1107 145.174 41.1758 144.848 41.2148L143.784 41.3516C143.146 41.4362 142.667 41.5697 142.348 41.752C141.808 42.0579 141.538 42.5462 141.538 43.2168ZM145.795 39.6621C146.199 39.61 146.469 39.4408 146.606 39.1543C146.684 38.998 146.723 38.7734 146.723 38.4805C146.723 37.8815 146.508 37.4486 146.079 37.1816C145.655 36.9082 145.047 36.7715 144.252 36.7715C143.334 36.7715 142.683 37.0189 142.299 37.5137C142.084 37.7871 141.944 38.194 141.879 38.7344H140.239C140.271 37.4453 140.688 36.5501 141.489 36.0488C142.296 35.541 143.23 35.2871 144.292 35.2871C145.522 35.2871 146.521 35.5215 147.29 35.9902C148.051 36.459 148.432 37.1882 148.432 38.1777V44.2031C148.432 44.3854 148.468 44.5319 148.54 44.6426C148.618 44.7533 148.777 44.8086 149.018 44.8086C149.096 44.8086 149.184 44.8053 149.282 44.7988C149.379 44.7858 149.484 44.7695 149.594 44.75V46.0488C149.321 46.127 149.112 46.1758 148.969 46.1953C148.826 46.2148 148.631 46.2246 148.383 46.2246C147.778 46.2246 147.338 46.0098 147.065 45.5801C146.922 45.3522 146.821 45.0299 146.762 44.6133C146.404 45.082 145.89 45.4889 145.219 45.834C144.549 46.179 143.81 46.3516 143.002 46.3516C142.032 46.3516 141.238 46.0586 140.62 45.4727C140.008 44.8802 139.702 44.1413 139.702 43.2559C139.702 42.2858 140.004 41.5339 140.61 41C141.215 40.4661 142.01 40.1374 142.993 40.0137L145.795 39.6621ZM157.856 35.541H159.799C159.552 36.2116 159.002 37.7415 158.149 40.1309C157.511 41.9277 156.977 43.3926 156.547 44.5254C155.532 47.1947 154.816 48.8223 154.399 49.4082C153.982 49.9941 153.266 50.2871 152.25 50.2871C152.003 50.2871 151.811 50.2773 151.674 50.2578C151.544 50.2383 151.381 50.2025 151.186 50.1504V48.5488C151.492 48.6335 151.713 48.6855 151.85 48.7051C151.987 48.7246 152.107 48.7344 152.211 48.7344C152.537 48.7344 152.775 48.679 152.924 48.5684C153.081 48.4642 153.211 48.334 153.315 48.1777C153.347 48.1257 153.465 47.8587 153.667 47.377C153.868 46.8952 154.015 46.5371 154.106 46.3027L150.239 35.541H152.231L155.034 44.0566L157.856 35.541Z" fill="black"/>
<defs>
<linearGradient id="paint0_linear_731_415" x1="28.2408" y1="20.8877" x2="10.537" y2="25.5856" gradientUnits="userSpaceOnUse">
<stop stop-color="#00A0FF"/>
<stop offset="0.00657" stop-color="#00A1FF"/>
<stop offset="0.2601" stop-color="#00BEFF"/>
<stop offset="0.5122" stop-color="#00D2FF"/>
<stop offset="0.7604" stop-color="#00DFFF"/>
<stop offset="1" stop-color="#00E3FF"/>
</linearGradient>
<linearGradient id="paint1_linear_731_415" x1="38.9718" y1="30.997" x2="17.3974" y2="30.997" gradientUnits="userSpaceOnUse">
<stop stop-color="#FFE000"/>
<stop offset="0.4087" stop-color="#FFBD00"/>
<stop offset="0.7754" stop-color="#FFA500"/>
<stop offset="1" stop-color="#FF9C00"/>
</linearGradient>
<linearGradient id="paint2_linear_731_415" x1="30.94" y1="33.0568" x2="16.6487" y2="57.0116" gradientUnits="userSpaceOnUse">
<stop stop-color="#FF3A44"/>
<stop offset="1" stop-color="#C31162"/>
</linearGradient>
<linearGradient id="paint3_linear_731_415" x1="15.3085" y1="13.2523" x2="21.6844" y2="23.9509" gradientUnits="userSpaceOnUse">
<stop stop-color="#32A071"/>
<stop offset="0.0685" stop-color="#2DA771"/>
<stop offset="0.4762" stop-color="#15CF74"/>
<stop offset="0.8009" stop-color="#06E775"/>
<stop offset="1" stop-color="#00F076"/>
</linearGradient>
</defs>
</svg>
